<svg id="Layer_1" data-name="Layer 1" xmlns="http://www.w3.org/2000/svg" viewBox="0 0 239.24 218"><defs><style>.cls-1{fill:#26ea9a;}.cls-2{fill:none;stroke:#fff;stroke-width:3.76px;}</style></defs><rect x="10.62" width="218" height="218" rx="48.22"/><path class="cls-1" d="M43.34,110.23C43.34,71.44,64.49,34,120.5,34c51.87,0,72.36,20.71,75.41,62.33H156.47c-1.75-19.61-10-30.95-35.32-30.95-26.36,0-37.7,15-37.7,44.9,0,29.43,10.46,44.68,36.62,44.68,25.94,0,35.3-10.9,36.83-32h39.88c-3.48,44.47-23.31,63.21-76.5,63.21C64.27,186.08,43.34,150.12,43.34,110.23Z"/><path class="cls-2" d="M133.87,145.42v38.46H112.11V148.71c0-8.1-3.16-12.53-10.37-12.53-8.6,0-12.52,5.57-12.52,18v29.73H67.83V148.71c0-8.1-3.16-12.53-10.37-12.53-8.47,0-12.52,5.57-12.52,18v29.73H23.18V120.62H44.94v10.76c3.92-7.85,10.62-12.78,21.5-12.78s17.71,5.19,20.87,14c3.93-8.47,10.88-14,22.4-14C126.28,118.6,133.87,128.85,133.87,145.42Z"/></svg>