<svg id="Layer_1" data-name="Layer 1" xmlns="http://www.w3.org/2000/svg" viewBox="0 0 239.24 218"><defs><style>.cls-1{fill:#26ea9a;}.cls-2{fill:#fff;}.cls-3{fill:none;stroke:#231f20;stroke-width:1.53px;}</style></defs><rect class="cls-1" width="239.24" height="218"/><circle class="cls-2" cx="133.91" cy="108.8" r="87.01"/><path d="M24.86,97.91C24.86,87,30.8,76.5,46.52,76.5c14.56,0,20.31,5.81,21.16,17.5H56.61c-.49-5.51-2.81-8.69-9.91-8.69-7.4,0-10.58,4.22-10.58,12.6s2.94,12.54,10.28,12.54,9.91-3.06,10.33-9h11.2c-1,12.48-6.55,17.74-21.47,17.74C30.74,119.2,24.86,109.11,24.86,97.91Z"/><path d="M68.85,102.93c0-8.2,4.52-16.27,17.49-16.27s17.56,8.07,17.56,16.27S99.31,119.2,86.34,119.2,68.85,111.18,68.85,102.93ZM86.34,111c5,0,7-2,7-8.07s-2-8.08-7-8.08-7,2-7,8.08S81.32,111,86.34,111Z"/><path d="M105.67,77.54h10.89V83.9H105.67Zm.18,10.1h10.52v30.58H105.85Z"/><path d="M153.07,99.62v18.6H142.55V101.4c0-4-1.65-6.24-5.32-6.24-4.22,0-6.67,2.69-6.67,8.68v14.38H120V87.64h10.52v5.68a11.53,11.53,0,0,1,11-6.66C149.59,86.66,153.07,91.61,153.07,99.62Z"/><path class="cls-3" d="M82.59,139.66v15.65H73.73V141c0-3.29-1.29-5.1-4.22-5.1-3.5,0-5.1,2.27-5.1,7.31v12.1h-8.7V141c0-3.29-1.28-5.1-4.22-5.1-3.45,0-5.1,2.27-5.1,7.31v12.1H37.54V129.57h8.85V134c1.6-3.19,4.33-5.2,8.76-5.2s7.2,2.11,8.49,5.71a9.29,9.29,0,0,1,9.11-5.71C79.5,128.75,82.59,132.92,82.59,139.66Z"/><path class="cls-3" d="M84.64,148.52c0-4.12,1.7-6.85,8.81-8l5.82-1c2.36-.42,3-1,3-2.37,0-1.55-.92-2.47-3.86-2.47-3.09,0-4.58,1.23-4.63,3.5h-8.6c.26-5.46,5-9.37,13.13-9.37s12.15,3.34,12.15,9.21v10.25a48.16,48.16,0,0,0,.46,7.1h-7.62a31.14,31.14,0,0,1-.41-5.35c-1.29,3.76-4.48,6-9.68,6S84.64,153.05,84.64,148.52Zm17.61-5.31v-1a10.39,10.39,0,0,1-4,1.64l-1.5.36c-2.47.62-3.39,1.5-3.39,3.25s1.39,2.73,3.19,2.73C99.88,150.22,102.25,147.85,102.25,143.21Z"/><path class="cls-3" d="M140.81,139.66v15.65H132V141.16c0-3.4-1.39-5.26-4.48-5.26-3.55,0-5.61,2.27-5.61,7.31v12.1H113V129.57h8.86v4.79a9.69,9.69,0,0,1,9.27-5.61C137.88,128.75,140.81,132.92,140.81,139.66Z"/><path class="cls-3" d="M143.39,121.08h9.16v5.35h-9.16Zm.15,8.49h8.86v25.74h-8.86Z"/><path class="cls-3" d="M154.56,148.52c0-4.12,1.7-6.85,8.8-8l5.82-1c2.37-.42,3-1,3-2.37,0-1.55-.93-2.47-3.86-2.47-3.09,0-4.59,1.23-4.64,3.5h-8.6c.26-5.46,5-9.37,13.13-9.37s12.15,3.34,12.15,9.21v10.25a48.06,48.06,0,0,0,.47,7.1H173.2a31.14,31.14,0,0,1-.41-5.35c-1.29,3.76-4.48,6-9.68,6S154.56,153.05,154.56,148.52Zm17.61-5.31v-1a10.44,10.44,0,0,1-4,1.64l-1.49.36c-2.47.62-3.4,1.5-3.4,3.25s1.39,2.73,3.19,2.73C169.8,150.22,172.17,147.85,172.17,143.21Z"/></svg>