<svg id="Layer_1" data-name="Layer 1" xmlns="http://www.w3.org/2000/svg" viewBox="0 0 468 218"><defs><style>.cls-1{fill:#26ea9a;}.cls-2,.cls-3{fill:none;}.cls-2{stroke:#231f20;stroke-width:2.33px;}</style></defs><circle class="cls-1" cx="245.37" cy="108.98" r="73.03"/><path d="M35.89,107.16c0-14.53,7.91-28.57,28.9-28.57,19.42,0,27.1,7.75,28.24,23.34H78.25C77.6,94.59,74.5,90.34,65,90.34c-9.88,0-14.12,5.63-14.12,16.82,0,11,3.92,16.73,13.71,16.73s13.23-4.08,13.8-12H93.36c-1.31,16.65-8.74,23.68-28.66,23.68C43.72,135.57,35.89,122.1,35.89,107.16Z"/><path d="M94.58,113.85c0-10.94,6-21.71,23.35-21.71s23.43,10.77,23.43,21.71-6.13,21.72-23.43,21.72S94.58,124.87,94.58,113.85Zm23.35,10.78c6.69,0,9.31-2.62,9.31-10.78s-2.62-10.77-9.31-10.77-9.31,2.61-9.31,10.77S111.24,124.63,117.93,124.63Z"/><path d="M143.72,80h14.53v8.49H143.72ZM144,93.44h14v40.82H144Z"/><path d="M207,109.44v24.82H193V111.81c0-5.39-2.2-8.33-7.1-8.33-5.64,0-8.9,3.6-8.9,11.59v19.19h-14V93.44h14V101c2.69-5.38,7.43-8.89,14.69-8.89C202.34,92.14,207,98.75,207,109.44Z"/><path class="cls-2" d="M280.11,109.4v23.9H266.58V111.44c0-5-2-7.78-6.44-7.78-5.35,0-7.78,3.46-7.78,11.16V133.3H239.07V111.44c0-5-2-7.78-6.45-7.78-5.26,0-7.78,3.46-7.78,11.16V133.3H211.32V94h13.52v6.68c2.44-4.87,6.6-7.94,13.36-7.94s11,3.22,13,8.73c2.43-5.27,6.76-8.73,13.91-8.73C275.39,92.73,280.11,99.1,280.11,109.4Z"/><path class="cls-2" d="M283.25,122.92c0-6.29,2.6-10.46,13.45-12.27l8.88-1.57c3.62-.63,4.56-1.57,4.56-3.61,0-2.36-1.42-3.78-5.9-3.78-4.71,0-7,1.89-7.07,5.35H284c.39-8.33,7.62-14.31,20-14.31s18.55,5.11,18.55,14.07v15.65a74.11,74.11,0,0,0,.71,10.85H311.71a48.42,48.42,0,0,1-.63-8.18c-2,5.74-6.84,9.2-14.78,9.2S283.25,129.84,283.25,122.92Zm26.89-8.1v-1.49a15.8,15.8,0,0,1-6.13,2.51l-2.28.56c-3.78.94-5.19,2.28-5.19,4.95s2.12,4.16,4.87,4.16C306.52,125.51,310.14,121.9,310.14,114.82Z"/><path class="cls-2" d="M369,109.4v23.9H355.51V111.68c0-5.19-2.13-8-6.84-8-5.43,0-8.57,3.46-8.57,11.16V133.3H326.57V94H340.1v7.31c2.59-5.19,7.15-8.57,14.15-8.57C364.55,92.73,369,99.1,369,109.4Z"/><path class="cls-2" d="M373,81h14v8.17H373Zm.23,13h13.53V133.3H373.19Z"/><path class="cls-2" d="M390,122.92c0-6.29,2.59-10.46,13.44-12.27l8.89-1.57c3.61-.63,4.56-1.57,4.56-3.61,0-2.36-1.42-3.78-5.9-3.78-4.72,0-7,1.89-7.08,5.35H390.8c.4-8.33,7.63-14.31,20.05-14.31s18.56,5.11,18.56,14.07v15.65a74.22,74.22,0,0,0,.7,10.85H418.48a48.42,48.42,0,0,1-.63-8.18c-2,5.74-6.84,9.2-14.78,9.2S390,129.84,390,122.92Zm26.89-8.1v-1.49a15.78,15.78,0,0,1-6.14,2.51l-2.28.56c-3.77.94-5.18,2.28-5.18,4.95s2.12,4.16,4.87,4.16C413.29,125.51,416.91,121.9,416.91,114.82Z"/><rect class="cls-3" width="468" height="218"/></svg>