<svg xmlns="http://www.w3.org/2000/svg" width="34.518" height="34.518" viewBox="0 0 34.518 34.518"><defs><style>.a{fill-rule:evenodd;}</style></defs><g transform="matrix(0.819, 0.574, -0.574, 0.819, 13.209, -5.71)"><g transform="translate(0 0)"><path class="a" d="M12.53,14.174h2.551A1.757,1.757,0,0,1,16.952,16.1,1.9,1.9,0,0,1,15.9,17.945a2.5,2.5,0,0,1-.936.142H12.53V14.174Zm3.175-5.159a1.638,1.638,0,0,1,.765,1.5,1.565,1.565,0,0,1-1.616,1.729H12.53V8.816h2.041a2.625,2.625,0,0,1,1.134.2Zm-.51,11.028v1.984H13.862V20.043H12.473v1.984H11.141V20.043H8.476V18.228H9.3a.732.732,0,0,0,.737-.737V9.469A.732.732,0,0,0,9.3,8.732H8.476V6.917h2.665V4.933h1.332V6.917h1.389V4.933h1.332V6.945a4.851,4.851,0,0,1,1.758.34,3.126,3.126,0,0,1,2.013,3.033,3,3,0,0,1-1.616,2.806,3.1,3.1,0,0,1,2.126,3.147,3.758,3.758,0,0,1-2.636,3.544,5.484,5.484,0,0,1-1.644.227ZM0,13.466A13.466,13.466,0,1,0,13.466,0,13.478,13.478,0,0,0,0,13.466Z" transform="matrix(0.966, -0.259, 0.259, 0.966, 0, 6.97)"/></g></g></svg>