<svg xmlns="http://www.w3.org/2000/svg" width="23.827" height="22.372" viewBox="0 0 23.827 22.372"><defs><style>.a{fill:none;stroke:#26ea9a;stroke-linecap:square;stroke-miterlimit:10;stroke-width:2px;}</style></defs><g transform="translate(1 1)"><path class="a" d="M20.645,13V7.183H3.183A2.183,2.183,0,0,1,1,5V20.279a2.91,2.91,0,0,0,2.91,2.91H20.645V17.369" transform="translate(-1 -2.817)"/><path class="a" d="M28.276,20.365H23.183A2.183,2.183,0,0,1,21,18.183h0A2.183,2.183,0,0,1,23.183,16h5.093Z" transform="translate(-6.448 -5.814)"/><path class="a" d="M16.279,3.455V2H3.183A2.183,2.183,0,0,0,1,4.183H1A2.183,2.183,0,0,0,3.183,6.365" transform="translate(-1 -2)"/></g></svg>